<svg width="40" height="33" viewBox="0 0 22 18" fill="none" xmlns="http://www.w3.org/2000/svg">
<path d="M8.87572 0.413315L0.333496 8.99998L8.87572 17.5866C8.95287 17.688 9.05088 17.7715 9.16313 17.8316C9.27537 17.8918 9.39923 17.9271 9.52631 17.9352C9.65339 17.9433 9.78073 17.924 9.89971 17.8786C10.0187 17.8333 10.1265 17.7628 10.2159 17.6722C10.3053 17.5815 10.3742 17.4726 10.4179 17.353C10.4615 17.2334 10.479 17.1058 10.4691 16.9789C10.4592 16.8519 10.4221 16.7286 10.3604 16.6172C10.2986 16.5058 10.2137 16.409 10.1113 16.3333L3.72016 9.88887L20.7246 9.88887C20.9604 9.88887 21.1865 9.79522 21.3532 9.62852C21.5198 9.46182 21.6135 9.23573 21.6135 8.99998C21.6135 8.76423 21.5198 8.53814 21.3532 8.37144C21.1865 8.20474 20.9604 8.11109 20.7246 8.11109L3.72016 8.11109L10.1113 1.66665C10.2775 1.49927 10.3704 1.27272 10.3695 1.03684C10.3687 0.800959 10.2742 0.575072 10.1068 0.408869C9.93945 0.242667 9.7129 0.149764 9.47702 0.150597C9.24114 0.151431 9.01526 0.245934 8.84905 0.413315H8.87572Z" fill="#091E42"/>
</svg>
