<svg width="55" height="50" viewBox="0 0 22 20" fill="none" xmlns="http://www.w3.org/2000/svg">
<path d="M12.1252 11V14.75C12.1252 15.0483 12.0067 15.3345 11.7957 15.5454C11.5848 15.7564 11.2986 15.875 11.0002 15.875C10.7019 15.875 10.4157 15.7564 10.2047 15.5454C9.99377 15.3345 9.87524 15.0483 9.87524 14.75V11C9.87524 10.7016 9.99377 10.4154 10.2047 10.2045C10.4157 9.99348 10.7019 9.87495 11.0002 9.87495C11.2986 9.87495 11.5848 9.99348 11.7957 10.2045C12.0067 10.4154 12.1252 10.7016 12.1252 11ZM14.7559 10.8884L14.3809 14.6384C14.3513 14.9353 14.4409 15.2317 14.6299 15.4626C14.8189 15.6934 15.0918 15.8397 15.3887 15.8693C15.4262 15.8693 15.4646 15.875 15.5012 15.875C15.7801 15.8747 16.0489 15.7709 16.2556 15.5836C16.4622 15.3964 16.592 15.139 16.6196 14.8615L16.9946 11.1115C17.0205 10.8166 16.929 10.5234 16.7401 10.2954C16.5512 10.0675 16.2801 9.92315 15.9855 9.89379C15.6909 9.86443 15.3966 9.95238 15.1664 10.1386C14.9362 10.3247 14.7887 10.5942 14.7559 10.8884ZM7.24462 10.8884C7.21176 10.5942 7.06425 10.3247 6.83407 10.1386C6.60389 9.95238 6.30959 9.86443 6.015 9.89379C5.7204 9.92315 5.44925 10.0675 5.26035 10.2954C5.07144 10.5234 4.98001 10.8166 5.00587 11.1115L5.38087 14.8615C5.40854 15.1392 5.53841 15.3967 5.74527 15.5839C5.95213 15.7712 6.2212 15.8749 6.50024 15.875C6.53681 15.875 6.57524 15.875 6.61274 15.8693C6.90961 15.8397 7.18256 15.6934 7.37156 15.4626C7.56056 15.2317 7.65012 14.9353 7.62056 14.6384L7.24462 10.8884ZM21.8696 7.39902L20.4568 17.9928C20.3966 18.4443 20.1746 18.8586 19.832 19.1588C19.4894 19.459 19.0495 19.6246 18.594 19.625H3.40649C2.9525 19.6237 2.51429 19.4582 2.17277 19.159C1.83125 18.8599 1.60947 18.4473 1.54837 17.9975L0.135556 7.4037C0.113587 7.24446 0.125998 7.08237 0.171954 6.92833C0.217909 6.77429 0.296341 6.63189 0.401966 6.51072C0.507592 6.38955 0.637958 6.29242 0.784284 6.22588C0.93061 6.15933 1.0895 6.12492 1.25024 6.12495H5.23931L10.1565 0.509328C10.2621 0.388681 10.3922 0.291997 10.5382 0.225755C10.6843 0.159513 10.8427 0.125244 11.0031 0.125244C11.1634 0.125244 11.3219 0.159513 11.4679 0.225755C11.6139 0.291997 11.744 0.388681 11.8496 0.509328L16.7612 6.12495H20.7502C20.9105 6.12501 21.069 6.15932 21.2149 6.22558C21.3609 6.29185 21.491 6.38854 21.5965 6.50918C21.7021 6.62982 21.7806 6.77162 21.8269 6.92508C21.8732 7.07855 21.8862 7.24013 21.8649 7.39902H21.8696ZM8.22993 6.12495H13.7706L11.0002 2.95808L8.22993 6.12495ZM19.4649 8.37495H2.53556L3.73556 17.375H18.2668L19.4649 8.37495Z" fill="currentColor"/>
</svg>
