<svg width="50" height="55" viewBox="0 0 20 22" fill="none" xmlns="http://www.w3.org/2000/svg">
<path d="M19.1207 14.5559C18.307 13.1562 17.8748 11.1472 17.8748 8.75C17.8748 6.66142 17.0451 4.65838 15.5682 3.18153C14.0914 1.70469 12.0884 0.875 9.99978 0.875C7.9112 0.875 5.90816 1.70469 4.43132 3.18153C2.95447 4.65838 2.12478 6.66142 2.12478 8.75C2.12478 11.1481 1.69447 13.1562 0.880719 14.5559C0.714671 14.8414 0.626652 15.1656 0.6255 15.4958C0.624348 15.8261 0.710104 16.1509 0.874157 16.4375C1.03717 16.7243 1.27378 16.9624 1.55955 17.1272C1.84532 17.292 2.1699 17.3775 2.49978 17.375H5.89166C5.98468 18.4003 6.45773 19.3537 7.21787 20.048C7.97801 20.7423 8.97029 21.1273 9.99978 21.1273C11.0293 21.1273 12.0216 20.7423 12.7817 20.048C13.5418 19.3537 14.0149 18.4003 14.1079 17.375H17.4998C17.8292 17.377 18.1532 17.2913 18.4384 17.1265C18.7236 16.9617 18.9598 16.7239 19.1226 16.4375C19.2874 16.1513 19.3739 15.8267 19.3736 15.4965C19.3733 15.1662 19.2861 14.8418 19.1207 14.5559ZM9.99978 18.875C9.56754 18.8751 9.14854 18.7258 8.81369 18.4525C8.47885 18.1791 8.24873 17.7985 8.16228 17.375H11.8373C11.7508 17.7985 11.5207 18.1791 11.1859 18.4525C10.851 18.7258 10.432 18.8751 9.99978 18.875ZM3.12416 15.125C3.95384 13.4375 4.37478 11.2944 4.37478 8.75C4.37478 7.25816 4.96741 5.82742 6.02231 4.77252C7.0772 3.71763 8.50794 3.125 9.99978 3.125C11.4916 3.125 12.9224 3.71763 13.9773 4.77252C15.0321 5.82742 15.6248 7.25816 15.6248 8.75C15.6248 11.2934 16.0448 13.4375 16.8745 15.125H3.12416Z" fill="currentColor"/>
</svg>
