<svg width="53" height="52" viewBox="0 0 53 52" fill="none" xmlns="http://www.w3.org/2000/svg">
<path fill-rule="evenodd" clip-rule="evenodd" d="M26.5 52C33.3956 52 40.0088 49.2607 44.8848 44.3848C49.7607 39.5088 52.5 32.8956 52.5 26C52.5 19.1044 49.7607 12.4912 44.8848 7.61522C40.0088 2.73928 33.3956 0 26.5 0C19.6044 0 12.9912 2.73928 8.11522 7.61522C3.23928 12.4912 0.5 19.1044 0.5 26C0.5 32.8956 3.23928 39.5088 8.11522 44.3848C12.9912 49.2607 19.6044 52 26.5 52ZM38.5478 23.7023L28.7978 13.9523C28.1848 13.3602 27.3638 13.0327 26.5117 13.0401C25.6596 13.0475 24.8444 13.3893 24.2418 13.9918C23.6393 14.5944 23.2975 15.4096 23.2901 16.2617C23.2827 17.1138 23.6102 17.9348 24.2023 18.5478L28.4045 22.75H16.75C15.888 22.75 15.0614 23.0924 14.4519 23.7019C13.8424 24.3114 13.5 25.138 13.5 26C13.5 26.862 13.8424 27.6886 14.4519 28.2981C15.0614 28.9076 15.888 29.25 16.75 29.25H28.4045L24.2023 33.4523C23.8918 33.7521 23.6443 34.1107 23.4739 34.5072C23.3036 34.9037 23.2139 35.3302 23.2102 35.7617C23.2064 36.1932 23.2887 36.6212 23.4521 37.0206C23.6155 37.42 23.8568 37.7829 24.162 38.088C24.4671 38.3932 24.83 38.6345 25.2294 38.7979C25.6288 38.9613 26.0568 39.0436 26.4883 39.0398C26.9198 39.0361 27.3463 38.9464 27.7428 38.7761C28.1393 38.6058 28.4979 38.3582 28.7978 38.0478L38.5478 28.2978C39.157 27.6883 39.4993 26.8618 39.4993 26C39.4993 25.1382 39.157 24.3117 38.5478 23.7023Z" fill="currentColor"/>
</svg>
