<svg width="64" height="64" viewBox="0 0 64 64" fill="none" xmlns="http://www.w3.org/2000/svg">
<path d="M9.37597 54.6239C6.31965 51.672 3.88182 48.141 2.20473 44.2369C0.52764 40.3327 -0.355119 36.1337 -0.392041 31.8848C-0.428963 27.6358 0.380691 23.4221 1.98968 19.4894C3.59867 15.5567 5.97477 11.9838 8.97933 8.97927C11.9839 5.97471 15.5568 3.59861 19.4894 1.98962C23.4221 0.38063 27.6359 -0.429024 31.8848 -0.392102C36.1337 -0.35518 40.3328 0.527579 44.2369 2.20467C48.141 3.88176 51.6721 6.31959 54.624 9.37591C60.453 15.4112 63.6785 23.4945 63.6055 31.8848C63.5326 40.275 60.1672 48.301 54.2342 54.2341C48.3011 60.1672 40.2751 63.5326 31.8848 63.6055C23.4945 63.6784 15.4112 60.453 9.37597 54.6239ZM50.112 50.1119C54.9156 45.3083 57.6142 38.7932 57.6142 31.9999C57.6142 25.2066 54.9156 18.6915 50.112 13.8879C45.3084 9.08431 38.7933 6.38568 32 6.38568C25.2067 6.38568 18.6916 9.08431 13.888 13.8879C9.08437 18.6915 6.38574 25.2066 6.38574 31.9999C6.38574 38.7932 9.08437 45.3083 13.888 50.1119C18.6916 54.9155 25.2067 57.6141 32 57.6141C38.7933 57.6141 45.3084 54.9155 50.112 50.1119ZM28.8 15.9999H35.2V35.1999H28.8V15.9999ZM28.8 41.5999H35.2V47.9999H28.8V41.5999Z" fill="#DC2626"/>
</svg>
