<svg width="40" height="40" viewBox="0 0 40 40" fill="none" xmlns="http://www.w3.org/2000/svg">
<g clip-path="url(#clip0_239_3267)">
<path d="M20 36.6667C10.795 36.6667 3.33331 29.205 3.33331 20C3.33331 10.795 10.795 3.33335 20 3.33335C22.5876 3.33205 25.14 3.9339 27.4544 5.09113C29.7689 6.24836 31.7818 7.92912 33.3333 10H28.8166C26.892 8.30295 24.5186 7.19728 21.9812 6.81568C19.4437 6.43408 16.8501 6.79277 14.5115 7.8487C12.1728 8.90463 10.1886 10.6129 8.79676 12.7687C7.40496 14.9244 6.66476 17.4359 6.66498 20.0019C6.66519 22.5678 7.40581 25.0792 8.79797 27.2347C10.1901 29.3902 12.1747 31.0982 14.5135 32.1537C16.8523 33.2092 19.446 33.5675 21.9834 33.1855C24.5207 32.8035 26.894 31.6974 28.8183 30H33.335C31.7833 32.0711 29.7701 33.752 27.4553 34.9093C25.1406 36.0665 22.5879 36.6682 20 36.6667ZM31.6666 26.6667V21.6667H18.3333V18.3333H31.6666V13.3333L40 20L31.6666 26.6667Z" fill="#091E42"/>
</g>
<defs>
<clipPath id="clip0_239_3267">
<rect width="40" height="40" fill="white"/>
</clipPath>
</defs>
</svg>
