<svg width="50" height="50" viewBox="0 0 50 50" fill="none" xmlns="http://www.w3.org/2000/svg">
<path d="M11.0369 35.0908L13.3064 35.0269C13.8817 35.0269 14.3292 35.1831 14.6489 35.4957C14.9685 35.8082 15.1283 36.1989 15.1283 36.6677C15.1283 37.3354 14.8194 37.9534 14.2014 38.5217C13.5834 39.0899 12.7239 39.4167 11.6229 39.5019C11.5163 39.5019 11.4631 39.3812 11.4631 39.1396C11.4631 39.0331 11.4808 38.9443 11.5163 38.8733C12.1698 38.8591 12.6973 38.6389 13.0986 38.2127C13.4999 37.7865 13.7006 37.3283 13.7006 36.8382C13.7006 36.5256 13.6065 36.2682 13.4182 36.0657C13.23 35.8633 12.9548 35.762 12.5925 35.762C12.3865 35.762 12.2338 35.7691 12.1343 35.7834C12.042 36.174 11.6993 37.0992 11.1061 38.559C10.513 40.0187 10.2164 40.951 10.2164 41.3559C10.2164 41.4482 10.2484 41.5761 10.3123 41.7394C10.2484 41.846 10.1188 41.9454 9.92344 42.0378C9.7281 42.1301 9.52388 42.1763 9.31078 42.1763C8.81356 42.1763 8.56494 41.9667 8.56494 41.5476C8.56494 41.2706 8.72476 40.7592 9.04441 40.0133C9.36406 39.2675 9.68193 38.4968 9.99802 37.7012C10.3141 36.9057 10.4722 36.3125 10.4722 35.9219C10.4722 35.8366 10.3816 35.7532 10.2005 35.6715C10.0193 35.5898 9.86484 35.5489 9.73698 35.5489C9.67305 35.5489 9.64108 35.5046 9.64108 35.4158C9.64108 35.327 9.66417 35.24 9.71034 35.1547C9.75651 35.0695 9.79025 35.0269 9.81156 35.0269C10.4082 35.0695 10.8167 35.0908 11.0369 35.0908Z" fill="current"/>
<path d="M15.5225 42.1658C14.7341 42.1658 14.3398 41.7645 14.3398 40.9618C14.3398 40.5285 14.4393 40.0633 14.6382 39.566C14.8371 39.0688 15.0946 38.6107 15.4107 38.1916C15.7268 37.7725 16.105 37.4226 16.5454 37.1421C16.9858 36.8615 17.4351 36.7212 17.8932 36.7212C18.3514 36.7212 18.6888 36.8118 18.9055 36.9929C19.1221 37.174 19.2304 37.467 19.2304 37.8719C19.2304 38.5467 19.0315 39.2233 18.6338 39.9017C18.236 40.58 17.7476 41.127 17.1687 41.5425C16.5898 41.9581 16.0411 42.1658 15.5225 42.1658ZM16.2471 41.2282C16.6662 41.2282 17.0586 40.937 17.4244 40.3545C17.7902 39.772 17.9732 39.2251 17.9732 38.7137C17.9732 37.9891 17.6748 37.6269 17.0781 37.6269C16.9787 37.6269 16.8864 37.6375 16.8011 37.6588C16.7159 37.6801 16.6662 37.6997 16.652 37.7174C16.6377 37.7352 16.6076 37.7707 16.5614 37.824C16.5152 37.8772 16.4353 37.9927 16.3217 38.1703C16.208 38.3478 16.105 38.5254 16.0127 38.703C15.7783 39.1931 15.661 39.6389 15.661 40.0402C15.661 40.4415 15.7143 40.7399 15.8209 40.9352C15.9274 41.1305 16.0695 41.2282 16.2471 41.2282Z" fill="current"/>
<path d="M23.3538 40.4821C23.3538 40.4821 23.3609 40.4821 23.3752 40.4821C23.3894 40.4821 23.4195 40.514 23.4657 40.5779C23.5119 40.6419 23.535 40.6898 23.535 40.7218C23.535 40.7538 23.4924 40.8195 23.4071 40.9189C23.3219 41.0183 23.1976 41.1391 23.0342 41.2812C22.8708 41.4232 22.6897 41.5582 22.4908 41.6861C22.0007 42.0128 21.5141 42.1762 21.0311 42.1762C20.5481 42.1762 20.1805 42.0377 19.9283 41.7606C19.6761 41.4836 19.55 41.1 19.55 40.6099C19.55 40.1198 19.7205 39.5693 20.0615 38.9584C20.4024 38.3475 20.8659 37.8254 21.4519 37.3921C22.038 36.9588 22.64 36.7422 23.258 36.7422C23.9967 36.7422 24.3661 37.0867 24.3661 37.7757C24.3661 38.1167 24.2382 38.3937 23.9825 38.6068C23.7268 38.8199 23.4675 38.9264 23.2047 38.9264C23.0839 38.9264 23.0235 38.8945 23.0235 38.8305C23.0449 38.5109 23.0555 38.3404 23.0555 38.3191C23.0555 37.8148 22.8637 37.5626 22.4801 37.5626C22.3523 37.5626 22.2102 37.5875 22.0539 37.6372C21.9474 37.7224 21.816 37.8592 21.6597 38.0474C21.5034 38.2356 21.372 38.4203 21.2655 38.6015C21.1589 38.7826 21.0613 39.0152 20.9725 39.2994C20.8837 39.5835 20.8393 39.8747 20.8393 40.1731C20.8393 40.4714 20.9157 40.7147 21.0684 40.9029C21.2211 41.0912 21.4253 41.1853 21.681 41.1853C21.9367 41.1853 22.1907 41.1267 22.4428 41.0095C22.695 40.8923 22.9028 40.7751 23.0662 40.6579C23.2295 40.5407 23.3254 40.4821 23.3538 40.4821Z" fill="current"/>
<path d="M25.8898 37.5308C25.7264 37.5308 25.524 37.5982 25.2825 37.7332C25.2327 37.7332 25.1866 37.6906 25.1439 37.6053C25.1013 37.5201 25.08 37.4526 25.08 37.4029C25.08 37.3532 25.1475 37.2821 25.2825 37.1898C25.4174 37.0975 25.6163 37.0069 25.8791 36.9181C26.142 36.8293 26.4154 36.7849 26.6996 36.7849C27.1613 36.7849 27.3921 36.9767 27.3921 37.3603C27.3921 37.5805 27.2856 37.9054 27.0725 38.3352C26.8594 38.7649 26.6463 39.216 26.4332 39.6884C26.2201 40.1607 26.1135 40.5567 26.1135 40.8764C26.1135 40.9687 26.1313 41.0433 26.1668 41.1001C26.2023 41.157 26.2592 41.1925 26.3373 41.2067C26.3657 41.1925 26.4048 41.1747 26.4545 41.1534C26.5042 41.1321 26.6019 41.0753 26.7475 40.9829C26.8931 40.8906 27.0299 40.7876 27.1577 40.6739C27.5058 40.3756 27.797 40.0133 28.0314 39.5871C28.6281 37.6195 29.2603 36.6357 29.928 36.6357C30.0559 36.6357 30.1748 36.7068 30.2849 36.8488C30.395 36.9909 30.4501 37.1223 30.4501 37.2431C30.4501 37.5059 30.3364 37.8326 30.1091 38.2233C29.8818 38.614 29.6545 38.9372 29.4272 39.1929L29.0863 39.5871C28.9939 39.8642 28.9477 40.2406 28.9477 40.7166C28.9477 41.1925 29.0827 41.4304 29.3526 41.4304C29.4947 41.4304 29.6492 41.386 29.8161 41.2973C29.983 41.2085 30.102 41.1392 30.1731 41.0895C30.1944 41.0895 30.2317 41.1321 30.2849 41.2173C30.3382 41.3026 30.3648 41.3683 30.3648 41.4145C30.3648 41.4606 30.2903 41.5423 30.1411 41.6595C29.9919 41.7767 29.7788 41.8939 29.5018 42.0111C29.2248 42.1283 28.9371 42.1869 28.6388 42.1869C28.3404 42.1869 28.122 42.0573 27.9835 41.798C27.845 41.5388 27.7757 41.2351 27.7757 40.887C27.7757 40.7734 27.7793 40.6917 27.7864 40.642C27.6017 40.9829 27.2643 41.3221 26.7741 41.6595C26.284 41.9969 25.8845 42.1656 25.5755 42.1656C25.2665 42.1656 25.041 42.0839 24.8989 41.9206C24.7568 41.7572 24.6858 41.5476 24.6858 41.2919C24.6858 40.9084 24.9042 40.2691 25.3411 39.3741C25.7779 38.479 25.9963 37.9072 25.9963 37.6586C25.9963 37.5734 25.9608 37.5308 25.8898 37.5308Z" fill="current"/>
<path d="M34.3923 37.7972C34.2929 37.8469 34.0904 38.0831 33.785 38.5057C33.4795 38.9284 33.2451 39.2924 33.0818 39.5978C32.9184 40.3082 32.6929 40.9119 32.4052 41.4092C32.1175 41.9064 31.8831 42.155 31.702 42.155C31.5208 42.155 31.3326 42.1213 31.1372 42.0538C30.9419 41.9863 30.8442 41.8851 30.8442 41.7501C30.8442 41.5086 30.9384 41.2032 31.1266 40.8338C31.3148 40.4644 31.5048 40.1554 31.6966 39.9068L31.9737 39.5339C32.1157 39.0509 32.1868 38.5217 32.1868 37.9463C32.1868 37.6906 32.1335 37.5628 32.0269 37.5628C31.9488 37.5628 31.8529 37.5929 31.7392 37.6533C31.6256 37.7137 31.551 37.7439 31.5155 37.7439C31.48 37.7439 31.4409 37.7013 31.3983 37.616C31.3557 37.5308 31.3344 37.4651 31.3344 37.4189C31.3344 37.3727 31.4143 37.2946 31.5741 37.1845C31.7339 37.0744 31.9488 36.9661 32.2187 36.8595C32.4886 36.753 32.7408 36.6997 32.9752 36.6997C33.0818 36.6997 33.1723 36.7992 33.2469 36.998C33.3215 37.1969 33.3588 37.4083 33.3588 37.632C33.3588 37.8558 33.3552 38.0227 33.3481 38.1328C33.341 38.2429 33.3375 38.3192 33.3375 38.3619C33.6003 37.9002 33.9004 37.5095 34.2378 37.1898C34.5752 36.8702 34.8966 36.7104 35.2021 36.7104C35.5075 36.7104 35.7366 36.7921 35.8893 36.9554C36.042 37.1188 36.1184 37.3461 36.1184 37.6373C36.1184 38.0351 35.9195 38.4258 35.5217 38.8094C35.124 39.193 34.7794 39.3847 34.4882 39.3847C34.3461 39.3847 34.2751 39.3386 34.2751 39.2462C34.2751 39.2249 34.3302 39.1006 34.4403 38.8733C34.5504 38.646 34.6054 38.4098 34.6054 38.1648C34.6054 37.9197 34.5344 37.7972 34.3923 37.7972Z" fill="current"/>
<path d="M39.5493 44.5949C39.5209 44.6233 39.4819 44.6606 39.4321 44.7067C39.3824 44.7529 39.267 44.8133 39.0859 44.8879C38.9047 44.9625 38.7076 44.9998 38.4945 44.9998C38.2814 44.9998 38.1234 44.9571 38.0204 44.8719C37.9174 44.7867 37.8659 44.6375 37.8659 44.4244C37.8659 43.6928 38.1784 42.5172 38.8035 40.8976C38.5833 41.1889 38.2956 41.4748 37.9405 41.7553C37.5853 42.0359 37.2301 42.1762 36.875 42.1762C36.5198 42.1762 36.2517 42.0661 36.0705 41.8459C35.8894 41.6257 35.7988 41.299 35.7988 40.8657C35.7988 40.4324 35.9764 39.889 36.3316 39.2355C36.6867 38.582 37.1378 38.0137 37.6847 37.5307C38.2317 37.0477 38.7431 36.8062 39.219 36.8062C39.5671 36.8062 39.8832 36.9553 40.1673 37.2537C40.352 36.9553 40.4905 36.8062 40.5829 36.8062C40.7605 36.8062 40.9469 36.8399 41.1423 36.9074C41.3376 36.9749 41.4353 37.0761 41.4353 37.211C41.4353 37.4383 41.3411 37.7367 41.1529 38.106C40.9647 38.4754 40.7782 38.788 40.5935 39.0437L40.3058 39.4273C40.2561 39.5267 40.1993 39.6546 40.1354 39.8108C39.6737 41.6009 39.4428 42.986 39.4428 43.9662C39.4428 44.2717 39.4783 44.4812 39.5493 44.5949ZM39.8583 37.8184C39.7092 37.6408 39.528 37.5307 39.3149 37.4881L39.2084 37.4668C38.697 37.7793 38.2264 38.2748 37.7966 38.9531C37.3669 39.6315 37.152 40.2512 37.152 40.8124C37.152 40.9331 37.1822 41.0273 37.2426 41.0947C37.3029 41.1622 37.3722 41.196 37.4503 41.196C37.6563 41.196 37.8872 41.1036 38.1429 40.9189C38.3986 40.7343 38.6046 40.5496 38.7609 40.3649L38.9953 40.0879C39.2155 39.342 39.5032 38.5855 39.8583 37.8184Z" fill="current"/>
<path d="M19.5747 20.869C19.3575 21.3035 18.9828 22.0964 18.4506 23.2477C17.9183 24.3991 17.5219 25.2408 17.2612 25.7731C17.0005 26.3053 16.6638 26.9407 16.2511 27.6793C15.4907 29.0262 14.8173 29.6996 14.2308 29.6996C13.8397 29.6996 13.3455 29.5204 12.7481 29.1619C12.1507 28.8035 11.8521 28.4288 11.8521 28.0377C11.8521 27.2122 12.7101 25.1702 14.4263 21.9117C16.1424 18.6532 17.6848 16.0247 19.0534 14.0261C19.6834 12.1362 19.9984 10.5395 19.9984 9.23608C19.9984 8.30197 19.6834 7.83491 19.0534 7.83491C18.7275 7.83491 18.3148 7.95439 17.8151 8.19335C17.3155 8.43231 17.0331 8.56265 16.9679 8.58437C16.8376 8.56265 16.7072 8.40515 16.5769 8.11189C16.4466 7.81862 16.3814 7.56337 16.3814 7.34613C18.6841 5.78205 20.5306 5 21.9209 5C22.5509 5 23.0614 5.21724 23.4524 5.6517C23.8434 6.08617 24.0389 6.7596 24.0389 7.67199C24.0389 7.88922 23.9955 8.36714 23.9086 9.10574C26.2547 6.56409 28.275 5.29327 29.9694 5.29327C32.0549 5.29327 33.0976 6.58581 33.0976 9.17091C33.0976 10.7784 32.6414 12.5489 31.729 14.4823C30.8166 16.4157 29.5132 18.1101 27.8188 19.5656C26.1244 21.0211 24.343 21.7488 22.4748 21.7488C21.4104 21.7488 20.4437 21.4555 19.5747 20.869ZM27.5581 8.22594C26.1678 8.81247 24.8101 9.8552 23.485 11.3541C22.8115 13.6134 21.9317 15.8617 20.8456 18.0993C20.6066 18.6206 20.4654 18.9356 20.422 19.0442C21.0954 19.5004 21.7362 19.7285 22.3445 19.7285C23.8 19.7285 25.2011 18.6966 26.548 16.6329C27.8948 14.5692 28.5683 12.462 28.5683 10.3114C28.5683 8.92109 28.2315 8.22594 27.5581 8.22594Z" fill="current"/>
<path d="M36.4213 21.9443C35.9868 22.0747 35.3894 22.1398 34.6291 22.1398C33.8688 22.1398 33.2822 22.0095 32.8695 21.7488C32.8043 21.3578 32.7717 21.1297 32.7717 21.0645C32.7717 19.9783 33.1084 19.1311 33.7819 18.5229C34.477 17.9363 35.3894 17.6431 36.519 17.6431C37.0404 17.6431 37.5074 17.7082 37.9202 17.8386C38.0723 17.9255 38.1483 18.1807 38.1483 18.6043C38.1483 19.0279 37.9691 19.6253 37.6106 20.3965C37.2522 21.1677 36.8557 21.6836 36.4213 21.9443Z" fill="current"/>
</svg>
