<svg width="54" height="54" viewBox="0 0 54 54" fill="none" xmlns="http://www.w3.org/2000/svg">
<path d="M45.6667 3H8.33333C5.38781 3 3 5.38781 3 8.33333V45.6667C3 48.6122 5.38781 51 8.33333 51H45.6667C48.6122 51 51 48.6122 51 45.6667V8.33333C51 5.38781 48.6122 3 45.6667 3Z" stroke="current" stroke-width="5.33333" stroke-linecap="round" stroke-linejoin="round"/>
<path d="M19 24.3334C21.9455 24.3334 24.3333 21.9456 24.3333 19.0001C24.3333 16.0546 21.9455 13.6667 19 13.6667C16.0545 13.6667 13.6667 16.0546 13.6667 19.0001C13.6667 21.9456 16.0545 24.3334 19 24.3334Z" stroke="current" stroke-width="5.33333" stroke-linecap="round" stroke-linejoin="round"/>
<path d="M51 35.0001L42.7707 26.7708C41.7705 25.7709 40.4142 25.2092 39 25.2092C37.5858 25.2092 36.2295 25.7709 35.2293 26.7708L11 51.0001" stroke="current" stroke-width="5.33333" stroke-linecap="round" stroke-linejoin="round"/>
</svg>
