<svg width="32" height="32" viewBox="0 0 16 16" fill="none" xmlns="http://www.w3.org/2000/svg">
<path d="M10.6167 12.6666C10.3722 12.6666 10.15 12.6084 9.95 12.4919C9.75 12.3755 9.58889 12.2115 9.46667 11.9999L5.23334 4.66659H2.66667C2.47778 4.66659 2.31956 4.60259 2.192 4.47459C2.06445 4.34659 2.00045 4.18836 2 3.99992C1.99956 3.81147 2.06356 3.65325 2.192 3.52525C2.32045 3.39725 2.47867 3.33325 2.66667 3.33325H5.23334C5.47778 3.33325 5.7 3.3917 5.9 3.50859C6.1 3.62547 6.26111 3.78925 6.38334 3.99992L10.6167 11.3333H13.3333C13.5222 11.3333 13.6807 11.3973 13.8087 11.5253C13.9367 11.6533 14.0004 11.8115 14 11.9999C13.9996 12.1884 13.9356 12.3468 13.808 12.4753C13.6804 12.6037 13.5222 12.6675 13.3333 12.6666H10.6167ZM10.6667 4.66659C10.4778 4.66659 10.3196 4.60259 10.192 4.47459C10.0644 4.34659 10.0004 4.18836 10 3.99992C9.99956 3.81147 10.0636 3.65325 10.192 3.52525C10.3204 3.39725 10.4787 3.33325 10.6667 3.33325H13.3333C13.5222 3.33325 13.6807 3.39725 13.8087 3.52525C13.9367 3.65325 14.0004 3.81147 14 3.99992C13.9996 4.18836 13.9356 4.34681 13.808 4.47525C13.6804 4.6037 13.5222 4.66747 13.3333 4.66659H10.6667Z" fill="currentColor"/>
</svg>
