<svg width="49" height="50" viewBox="0 0 49 50" fill="none" xmlns="http://www.w3.org/2000/svg">
<path d="M27 6.33333L37.6667 17M41.6667 47.6667V47.6933M41.6667 39.6667C42.8621 39.6628 44.0218 39.2581 44.96 38.5172C45.8981 37.7763 46.5607 36.7421 46.8415 35.5801C47.1223 34.4181 47.0052 33.1954 46.5089 32.1079C46.0126 31.0203 45.1658 30.1307 44.104 29.5813C43.0432 29.0379 41.8296 28.8694 40.6608 29.1032C39.4921 29.3371 38.4368 29.9595 37.6667 30.8693M12.3334 42.3333L28.3334 26.3333L36.3334 18.3333L40.3334 14.3333C41.0337 13.6329 41.5893 12.8015 41.9684 11.8864C42.3474 10.9713 42.5425 9.99048 42.5425 8.99999C42.5425 8.0095 42.3474 7.02871 41.9684 6.11361C41.5893 5.19852 41.0337 4.36704 40.3334 3.66666C39.633 2.96628 38.8015 2.4107 37.8864 2.03166C36.9713 1.65261 35.9905 1.45752 35 1.45752C34.0095 1.45752 33.0287 1.65261 32.1136 2.03166C31.1985 2.4107 30.3671 2.96628 29.6667 3.66666L1.66669 31.6667V42.3333H12.3334Z" stroke="#6B788E" stroke-width="2.66667" stroke-linecap="round" stroke-linejoin="round"/>
</svg>
