<svg width="26" height="26" viewBox="0 0 26 26" fill="none" xmlns="http://www.w3.org/2000/svg">
<path d="M24.2275 25.2308L14.8345 15.8378C14.0845 16.4768 13.222 16.9713 12.247 17.3213C11.272 17.6713 10.292 17.8463 9.30701 17.8463C6.90501 17.8463 4.87201 17.0148 3.20801 15.3518C1.54401 13.6888 0.712006 11.6563 0.712006 9.25432C0.712006 6.85232 1.54301 4.81882 3.20501 3.15382C4.86701 1.48882 6.89901 0.655324 9.30101 0.653324C11.703 0.651324 13.737 1.48332 15.403 3.14932C17.069 4.81532 17.902 6.84882 17.902 9.24982C17.902 10.2918 17.7175 11.3003 17.3485 12.2753C16.9795 13.2503 16.4945 14.0843 15.8935 14.7773L25.2865 24.1688L24.2275 25.2308ZM9.3085 16.3448C11.2985 16.3448 12.9785 15.6598 14.3485 14.2898C15.7185 12.9198 16.4035 11.2393 16.4035 9.24832C16.4035 7.25732 15.7185 5.57732 14.3485 4.20832C12.9785 2.83932 11.2985 2.15432 9.3085 2.15332C7.3185 2.15232 5.63801 2.83732 4.26701 4.20832C2.89601 5.57932 2.21101 7.25932 2.21201 9.24832C2.21301 11.2373 2.89801 12.9173 4.26701 14.2883C5.63601 15.6593 7.31601 16.3443 9.30701 16.3433" fill="black"/>
</svg>
