<svg width="40" height="40" viewBox="0 0 40 40" fill="none" xmlns="http://www.w3.org/2000/svg">
<g clip-path="url(#clip0_345_3552)">
<rect width="40" height="40" rx="20" fill="currentColor"/>
<path d="M17.25 30L16.85 26.8C16.6333 26.7167 16.4292 26.6167 16.2375 26.5C16.0458 26.3833 15.8583 26.2583 15.675 26.125L12.7 27.375L9.95001 22.625L12.525 20.675C12.5083 20.5583 12.5 20.4458 12.5 20.3375V19.6625C12.5 19.5542 12.5083 19.4417 12.525 19.325L9.95001 17.375L12.7 12.625L15.675 13.875C15.8583 13.7417 16.05 13.6167 16.25 13.5C16.45 13.3833 16.65 13.2833 16.85 13.2L17.25 10H22.75L23.15 13.2C23.3667 13.2833 23.5708 13.3833 23.7625 13.5C23.9542 13.6167 24.1417 13.7417 24.325 13.875L27.3 12.625L30.05 17.375L27.475 19.325C27.4917 19.4417 27.5 19.5542 27.5 19.6625V20.3375C27.5 20.4458 27.4833 20.5583 27.45 20.675L30.025 22.625L27.275 27.375L24.325 26.125C24.1417 26.2583 23.95 26.3833 23.75 26.5C23.55 26.6167 23.35 26.7167 23.15 26.8L22.75 30H17.25ZM19 28H20.975L21.325 25.35C21.8417 25.2167 22.3208 25.0208 22.7625 24.7625C23.2042 24.5042 23.6083 24.1917 23.975 23.825L26.45 24.85L27.425 23.15L25.275 21.525C25.3583 21.2917 25.4167 21.0458 25.45 20.7875C25.4833 20.5292 25.5 20.2667 25.5 20C25.5 19.7333 25.4833 19.4708 25.45 19.2125C25.4167 18.9542 25.3583 18.7083 25.275 18.475L27.425 16.85L26.45 15.15L23.975 16.2C23.6083 15.8167 23.2042 15.4958 22.7625 15.2375C22.3208 14.9792 21.8417 14.7833 21.325 14.65L21 12H19.025L18.675 14.65C18.1583 14.7833 17.6792 14.9792 17.2375 15.2375C16.7958 15.4958 16.3917 15.8083 16.025 16.175L13.55 15.15L12.575 16.85L14.725 18.45C14.6417 18.7 14.5833 18.95 14.55 19.2C14.5167 19.45 14.5 19.7167 14.5 20C14.5 20.2667 14.5167 20.525 14.55 20.775C14.5833 21.025 14.6417 21.275 14.725 21.525L12.575 23.15L13.55 24.85L16.025 23.8C16.3917 24.1833 16.7958 24.5042 17.2375 24.7625C17.6792 25.0208 18.1583 25.2167 18.675 25.35L19 28ZM20.05 23.5C21.0167 23.5 21.8417 23.1583 22.525 22.475C23.2083 21.7917 23.55 20.9667 23.55 20C23.55 19.0333 23.2083 18.2083 22.525 17.525C21.8417 16.8417 21.0167 16.5 20.05 16.5C19.0667 16.5 18.2375 16.8417 17.5625 17.525C16.8875 18.2083 16.55 19.0333 16.55 20C16.55 20.9667 16.8875 21.7917 17.5625 22.475C18.2375 23.1583 19.0667 23.5 20.05 23.5Z" fill="white"/>
</g>
<defs>
<clipPath id="clip0_345_3552">
<rect width="40" height="40" rx="20" fill="white"/>
</clipPath>
</defs>
</svg>
