<svg width="60" height="38" viewBox="0 0 60 38" fill="none" xmlns="http://www.w3.org/2000/svg">
<path d="M19.3333 0.333252H40.6667C43.118 0.333252 45.5454 0.816079 47.8101 1.75417C50.0748 2.69225 52.1326 4.06723 53.866 5.80059C55.5994 7.53395 56.9743 9.59175 57.9124 11.8565C58.8505 14.1212 59.3333 16.5486 59.3333 18.9999C59.3333 21.4513 58.8505 23.8786 57.9124 26.1433C56.9743 28.4081 55.5994 30.4659 53.866 32.1992C52.1326 33.9326 50.0748 35.3076 47.8101 36.2457C45.5454 37.1838 43.118 37.6666 40.6667 37.6666H19.3333C16.882 37.6666 14.4547 37.1838 12.1899 36.2457C9.92517 35.3076 7.86737 33.9326 6.13401 32.1992C4.40065 30.4659 3.02568 28.4081 2.08759 26.1433C1.1495 23.8786 0.666672 21.4513 0.666672 18.9999C0.666672 16.5486 1.1495 14.1212 2.08759 11.8565C3.02568 9.59175 4.40065 7.53395 6.13401 5.80059C7.86737 4.06723 9.92517 2.69225 12.1899 1.75417C14.4547 0.816079 16.882 0.333252 19.3333 0.333252ZM40.6667 26.9999C42.7884 26.9999 44.8232 26.1571 46.3235 24.6568C47.8238 23.1565 48.6667 21.1217 48.6667 18.9999C48.6667 16.8782 47.8238 14.8434 46.3235 13.3431C44.8232 11.8428 42.7884 10.9999 40.6667 10.9999C38.5449 10.9999 36.5101 11.8428 35.0098 13.3431C33.5095 14.8434 32.6667 16.8782 32.6667 18.9999C32.6667 21.1217 33.5095 23.1565 35.0098 24.6568C36.5101 26.1571 38.5449 26.9999 40.6667 26.9999Z" fill="black"/>
</svg>
