<svg width="60" height="38" viewBox="0 0 60 38" fill="none" xmlns="http://www.w3.org/2000/svg">
<path d="M19.3333 5.66659C15.7971 5.66659 12.4057 7.07134 9.90524 9.57183C7.40476 12.0723 6 15.4637 6 18.9999C6 22.5361 7.40476 25.9275 9.90524 28.428C12.4057 30.9285 15.7971 32.3333 19.3333 32.3333H40.6667C44.2029 32.3333 47.5943 30.9285 50.0948 28.428C52.5952 25.9275 54 22.5361 54 18.9999C54 15.4637 52.5952 12.0723 50.0948 9.57183C47.5943 7.07134 44.2029 5.66659 40.6667 5.66659H19.3333ZM19.3333 0.333252H40.6667C43.118 0.333252 45.5453 0.816079 47.8101 1.75417C50.0748 2.69225 52.1326 4.06723 53.866 5.80059C55.5994 7.53395 56.9743 9.59175 57.9124 11.8565C58.8505 14.1212 59.3333 16.5486 59.3333 18.9999C59.3333 21.4513 58.8505 23.8786 57.9124 26.1433C56.9743 28.4081 55.5994 30.4659 53.866 32.1992C52.1326 33.9326 50.0748 35.3076 47.8101 36.2457C45.5453 37.1838 43.118 37.6666 40.6667 37.6666H19.3333C16.882 37.6666 14.4547 37.1838 12.1899 36.2457C9.92516 35.3076 7.86736 33.9326 6.134 32.1992C4.40064 30.4659 3.02567 28.4081 2.08758 26.1433C1.14949 23.8786 0.666664 21.4513 0.666664 18.9999C0.666664 16.5486 1.14949 14.1212 2.08758 11.8565C3.02567 9.59175 4.40064 7.53395 6.134 5.80059C7.86736 4.06723 9.92516 2.69225 12.1899 1.75417C14.4547 0.816079 16.882 0.333252 19.3333 0.333252ZM19.3333 26.9999C17.2116 26.9999 15.1768 26.1571 13.6765 24.6568C12.1762 23.1565 11.3333 21.1217 11.3333 18.9999C11.3333 16.8782 12.1762 14.8434 13.6765 13.3431C15.1768 11.8428 17.2116 10.9999 19.3333 10.9999C21.4551 10.9999 23.4899 11.8428 24.9902 13.3431C26.4905 14.8434 27.3333 16.8782 27.3333 18.9999C27.3333 21.1217 26.4905 23.1565 24.9902 24.6568C23.4899 26.1571 21.4551 26.9999 19.3333 26.9999Z" fill="black"/>
</svg>
